<?xml version="1.0" standalone="no"?>
<!DOCTYPE svg PUBLIC "-//W3C//DTD SVG 20010904//EN"
 "http://www.w3.org/TR/2001/REC-SVG-20010904/DTD/svg10.dtd">
<svg version="1.0" xmlns="http://www.w3.org/2000/svg"
 width="693.000000pt" height="678.000000pt" viewBox="0 0 693.000000 678.000000"
 preserveAspectRatio="xMidYMid meet">
<metadata>
Created by potrace 1.11, written by Peter Selinger 2001-2013
</metadata>
<g transform="translate(0.000000,678.000000) scale(0.100000,-0.100000)"
fill="#000000" stroke="none">
<path d="M1733 6773 c956 -2 2518 -2 3470 0 953 1 171 2 -1738 2 -1909 0
-2688 -1 -1732 -2z"/>
<path d="M1596 6588 c13 -206 11 -221 -35 -333 -23 -55 -52 -131 -65 -170 -14
-38 -54 -137 -91 -220 -37 -82 -78 -179 -91 -214 -13 -35 -40 -89 -59 -121
-19 -32 -35 -62 -35 -66 0 -5 -9 -20 -20 -34 -11 -14 -20 -33 -20 -43 0 -10
-19 -50 -42 -90 -23 -40 -53 -95 -67 -122 -15 -28 -36 -64 -49 -79 -12 -16
-22 -35 -22 -42 0 -8 -4 -14 -10 -14 -5 0 -10 -7 -10 -14 0 -8 -13 -34 -29
-58 -16 -24 -32 -53 -35 -65 -4 -13 -12 -23 -17 -23 -5 0 -9 -6 -9 -13 0 -8
-9 -22 -21 -33 -11 -10 -26 -32 -33 -49 -7 -16 -29 -50 -47 -75 -19 -25 -84
-121 -144 -214 -61 -92 -134 -195 -162 -229 -60 -69 -71 -93 -51 -113 12 -13
20 -10 56 16 91 66 352 342 398 422 6 10 21 30 34 43 23 24 41 52 59 90 5 12
16 27 25 34 9 7 16 18 16 24 0 5 11 24 23 41 13 17 46 69 72 116 26 47 63 103
82 126 18 23 33 46 33 52 0 6 4 12 8 14 23 9 275 533 302 628 7 25 16 54 21
65 18 41 60 186 70 242 26 141 63 118 95 -61 4 -22 20 -76 36 -120 17 -45 32
-92 35 -106 3 -14 10 -30 14 -36 5 -6 18 -36 28 -66 10 -30 41 -104 69 -164
28 -60 54 -122 58 -139 3 -16 16 -46 29 -65 12 -19 55 -92 94 -162 40 -70 76
-130 82 -133 5 -4 9 -15 9 -26 0 -11 7 -22 15 -25 8 -4 15 -11 15 -18 0 -6 19
-37 43 -68 23 -32 51 -74 62 -95 11 -21 33 -56 50 -78 17 -22 40 -53 53 -70
108 -143 147 -191 219 -267 85 -90 105 -127 83 -153 -10 -12 -9 -19 3 -37 35
-49 46 -57 122 -89 44 -18 90 -41 102 -52 18 -16 31 -19 68 -14 26 4 65 3 88
-3 26 -5 58 -5 82 0 22 5 66 6 98 3 48 -5 60 -10 67 -28 11 -29 57 -65 83 -65
11 0 28 -6 36 -13 9 -8 54 -28 100 -46 l83 -32 362 4 c300 3 369 6 411 20 28
9 91 28 140 42 91 27 250 105 347 170 71 47 135 104 302 270 132 132 187 201
266 336 18 31 47 73 65 95 l33 39 11 -25 c6 -14 29 -72 51 -130 73 -186 189
-358 370 -544 134 -138 307 -256 375 -256 60 0 19 55 -259 349 -76 80 -150
164 -164 186 -14 22 -58 83 -97 135 -40 52 -92 129 -115 170 -24 41 -61 97
-82 123 -21 27 -38 55 -38 64 0 18 19 56 34 65 6 4 11 11 12 15 0 4 4 25 8 46
10 47 0 107 -19 107 -17 0 -54 -46 -62 -79 -3 -14 -15 -34 -25 -45 -10 -11
-18 -23 -18 -26 0 -16 -152 -65 -174 -57 -12 5 -66 105 -70 130 -1 8 -7 21
-13 28 -6 8 -29 54 -52 104 -23 49 -48 96 -55 105 -8 8 -22 35 -32 60 -10 25
-26 56 -35 70 -10 14 -30 62 -44 107 -14 45 -35 93 -46 107 -22 28 -59 35 -59
11 0 -8 -4 -15 -10 -15 -12 0 -13 -45 -1 -68 4 -9 11 -30 15 -46 7 -29 7 -29
-33 -22 -21 3 -60 15 -86 26 -26 11 -55 20 -66 20 -10 0 -19 5 -19 10 0 6 -10
10 -22 10 -13 1 -41 7 -63 16 -57 20 -213 54 -252 54 -28 0 -38 7 -66 47 -17
25 -52 73 -77 106 -45 60 -111 172 -152 257 -14 30 -26 84 -34 160 -14 124
-26 175 -48 205 -22 31 -48 2 -45 -49 4 -81 6 -76 -103 -221 -94 -124 -326
-353 -387 -381 -20 -9 -44 -23 -53 -31 -14 -13 -19 -12 -37 6 -22 22 -42 25
-76 12 -24 -10 -45 4 -45 30 0 30 -19 32 -65 8 -39 -21 -48 -22 -78 -11 -18 7
-47 12 -65 12 -18 0 -36 7 -44 18 -7 10 -21 21 -32 25 -26 10 -91 -9 -122 -36
-26 -22 -26 -25 -13 -63 7 -21 23 -57 35 -79 12 -22 27 -58 34 -80 6 -22 21
-58 31 -81 10 -22 19 -46 19 -52 0 -7 18 -35 40 -63 21 -27 44 -65 49 -84 15
-56 135 -191 256 -291 48 -39 148 -84 160 -72 19 19 -59 138 -91 138 -8 0 -14
5 -14 12 0 7 -9 21 -19 33 -10 11 -38 41 -62 67 -24 25 -54 61 -66 80 -13 18
-45 63 -72 100 -27 37 -47 69 -43 72 3 3 -2 14 -11 23 -8 10 -25 44 -37 76
-12 31 -25 57 -28 57 -4 0 -12 8 -17 19 -54 101 -69 128 -81 141 -8 10 -10 21
-4 30 7 11 22 5 77 -32 109 -72 172 -90 300 -85 128 6 171 13 218 37 33 17 37
17 91 -1 32 -11 71 -19 88 -19 67 -1 409 -50 422 -61 23 -19 40 4 27 34 -24
53 -221 109 -388 111 -64 1 -70 3 -73 23 -2 14 4 26 20 34 35 19 135 117 195
192 30 37 60 67 68 67 13 0 35 -55 35 -87 0 -23 51 -128 92 -189 22 -34 71
-87 109 -118 66 -54 69 -58 69 -100 0 -48 5 -54 54 -66 17 -5 57 -15 89 -24
32 -9 70 -16 84 -16 29 0 145 -30 153 -39 3 -3 14 -6 25 -7 37 -2 212 -42 248
-58 25 -10 41 -26 51 -51 9 -20 24 -44 35 -53 10 -9 26 -37 35 -62 10 -25 39
-82 67 -126 27 -45 49 -85 49 -90 0 -4 9 -18 21 -30 17 -18 19 -26 10 -42 -21
-40 -139 -79 -156 -52 -4 6 -15 6 -31 0 -14 -6 -42 -10 -63 -10 -20 0 -41 -4
-47 -10 -5 -5 -115 -21 -244 -35 -129 -14 -251 -30 -270 -35 -47 -13 -107 -12
-133 1 -12 7 -33 25 -47 41 -31 36 -99 55 -275 77 -55 7 -83 15 -92 27 -11 15
-18 16 -47 7 -24 -7 -50 -8 -82 -1 -32 7 -54 7 -70 -1 -22 -10 -26 -8 -36 17
-6 15 -10 85 -10 162 0 74 -4 166 -8 205 -44 342 -43 339 -85 303 -26 -23 -27
-26 -16 -61 7 -20 10 -45 7 -55 -8 -23 12 -381 23 -441 5 -26 5 -74 -1 -118
-13 -95 -3 -110 63 -96 42 8 73 6 269 -18 47 -6 127 -13 178 -15 50 -3 92 -9
92 -14 0 -18 -130 -158 -177 -192 -26 -19 -95 -77 -153 -129 -135 -121 -224
-192 -331 -262 -47 -31 -92 -63 -99 -72 -16 -19 -49 -19 -147 1 -135 27 -176
35 -238 44 -100 14 -158 35 -175 61 -8 14 -24 40 -35 58 -11 18 -42 60 -68 94
-27 33 -62 84 -78 112 -16 28 -42 64 -59 80 -16 16 -30 37 -30 47 0 10 -7 21
-15 25 -9 3 -27 26 -39 52 -13 25 -38 64 -56 86 -34 42 -70 110 -70 131 0 7
-11 26 -24 42 -14 16 -50 78 -81 138 -31 60 -60 116 -65 124 -4 8 -12 26 -17
40 -6 14 -20 46 -32 71 -11 25 -21 51 -21 57 0 6 -9 16 -20 22 -11 6 -20 16
-20 23 0 23 -73 202 -97 237 -12 19 -23 42 -23 52 0 9 -4 20 -10 23 -5 3 -10
13 -10 21 0 8 -11 31 -24 52 -22 35 -68 152 -112 282 -10 30 -28 66 -41 81
-13 14 -23 32 -23 40 0 17 -21 76 -38 106 -7 12 -12 31 -12 42 0 11 -4 23 -10
26 -5 3 -10 17 -10 30 0 13 -4 27 -10 30 -5 3 -10 19 -10 35 0 16 -4 31 -9 34
-4 3 -11 25 -14 50 -8 54 -52 156 -68 156 -9 0 -9 -35 -3 -142z m3854 -1792
c0 -25 -487 -536 -510 -536 -7 0 -29 -16 -49 -35 -71 -69 -154 -135 -171 -135
-9 0 -27 -11 -39 -24 -13 -14 -36 -30 -52 -36 -16 -7 -29 -16 -29 -21 0 -5 -6
-9 -14 -9 -7 0 -24 -8 -37 -18 -51 -38 -162 -66 -183 -45 -4 4 -59 6 -123 4
-64 -1 -175 2 -247 8 -72 6 -189 16 -261 21 -230 19 -282 26 -311 45 -26 17
-27 18 -9 31 10 8 24 14 30 14 30 0 300 148 367 201 20 16 41 29 46 29 5 0 14
11 20 25 7 14 23 30 36 35 14 5 32 23 40 39 9 16 25 33 37 36 12 4 48 31 80
61 32 30 61 54 63 54 20 0 36 -16 36 -35 0 -24 -60 -85 -83 -85 -7 0 -18 -14
-24 -31 -7 -17 -21 -33 -32 -36 -11 -3 -23 -14 -26 -24 -4 -11 -20 -26 -36
-34 -16 -9 -29 -20 -29 -25 0 -6 -11 -10 -24 -10 -15 0 -33 -11 -46 -27 -12
-15 -36 -36 -55 -48 -18 -11 -63 -40 -99 -65 -51 -35 -61 -47 -49 -54 9 -5 29
-2 52 8 32 14 75 20 124 17 10 -1 17 -9 17 -21 0 -31 25 -35 67 -10 33 20 41
21 75 9 21 -7 38 -15 38 -19 0 -19 58 -31 103 -20 37 8 55 7 81 -4 44 -18 136
-31 136 -18 0 5 10 13 23 16 12 3 51 30 86 59 35 28 74 59 86 67 12 8 50 38
83 67 66 56 98 71 114 55 8 -8 6 -19 -6 -36 -39 -60 -5 -62 61 -2 26 24 55 45
64 47 20 5 195 193 230 248 28 44 38 81 21 81 -13 0 -139 -135 -201 -213 -56
-71 -76 -87 -111 -87 -52 0 -26 69 47 125 45 35 68 73 80 138 3 15 2 27 -1 27
-4 0 -26 -20 -49 -45 -37 -39 -49 -45 -83 -45 -68 0 -81 31 -36 87 68 86 63
83 154 83 98 0 365 63 445 104 55 29 83 32 83 12z m-1100 -116 c161 -30 198
-32 285 -21 103 14 121 7 89 -36 -37 -49 -70 -66 -134 -71 -53 -4 -64 -2 -86
19 -24 23 -25 23 -72 6 -58 -21 -102 -22 -128 -2 -26 20 -48 19 -69 -5 -38
-42 -86 -10 -60 41 23 44 84 92 109 84 11 -4 41 -10 66 -15z m-154 -322 c4 -7
-22 -40 -69 -85 -43 -40 -77 -77 -77 -81 0 -8 -79 -55 -99 -58 -7 -2 -18 -7
-24 -13 -6 -6 -21 -11 -34 -11 -17 0 -23 6 -23 23 0 25 31 58 100 105 25 16
70 53 100 81 41 38 63 50 87 51 17 0 35 -5 39 -12z"/>
<path d="M1713 6593 c-7 -2 -13 -11 -13 -19 0 -16 87 -87 140 -114 20 -10 42
-26 49 -34 8 -9 20 -16 29 -16 8 0 31 -12 51 -27 48 -37 97 -63 105 -56 3 4 6
1 6 -5 0 -6 10 -14 23 -17 12 -4 31 -15 42 -25 11 -10 37 -23 57 -29 20 -7 53
-23 73 -37 20 -13 45 -24 55 -24 11 0 20 -4 20 -10 0 -5 8 -10 18 -10 17 0 81
-29 105 -48 7 -5 29 -15 49 -21 20 -7 42 -19 48 -27 7 -7 24 -14 37 -14 14 0
36 -9 50 -20 14 -11 33 -20 42 -20 35 -1 101 -40 113 -67 27 -64 71 -88 116
-63 30 16 152 41 172 35 11 -4 25 -15 30 -26 13 -24 28 -24 55 1 11 10 36 21
55 22 31 3 34 1 34 -27 1 -45 35 -41 61 8 11 20 29 40 39 43 11 4 27 14 35 24
18 20 98 42 107 29 8 -13 -14 -47 -41 -65 -14 -9 -25 -22 -25 -29 0 -17 -44
-45 -70 -45 -14 0 -20 -7 -20 -23 0 -53 13 -44 213 143 95 90 121 109 172 125
52 18 71 32 138 103 124 130 102 135 -132 30 -177 -79 -356 -143 -545 -193
-109 -29 -133 -32 -151 -22 -96 53 -159 82 -370 167 -132 54 -324 134 -427
179 -103 45 -193 81 -202 81 -8 0 -17 4 -20 9 -4 5 -57 30 -119 57 -61 26
-128 55 -147 65 -37 20 -38 20 -57 12z"/>
<path d="M1896 6231 c-4 -5 9 -54 28 -108 19 -54 40 -117 46 -140 6 -24 15
-43 20 -43 5 0 17 -26 26 -57 9 -32 27 -74 40 -93 13 -20 27 -50 30 -68 4 -18
31 -76 60 -129 29 -53 63 -121 75 -152 12 -31 27 -62 32 -69 30 -38 101 -174
115 -219 9 -29 20 -53 24 -53 4 0 8 -6 8 -13 0 -8 16 -36 35 -63 19 -27 35
-55 35 -61 0 -7 9 -18 20 -25 11 -7 20 -20 20 -30 0 -9 4 -19 9 -22 4 -3 11
-20 15 -37 3 -18 19 -48 34 -68 35 -46 96 -141 118 -182 9 -18 35 -53 58 -78
24 -25 71 -83 106 -129 61 -81 104 -121 117 -108 10 9 -26 69 -85 143 -59 74
-57 85 10 97 40 7 42 6 103 -75 22 -29 63 -77 90 -108 28 -31 60 -69 72 -86
16 -22 25 -27 33 -19 14 14 -15 76 -59 126 -15 18 -33 43 -40 56 -6 12 -18 22
-26 22 -10 0 -15 10 -15 29 0 25 5 30 33 35 75 14 99 -1 162 -103 6 -9 33 -49
60 -88 48 -70 67 -85 80 -63 8 12 -44 110 -62 117 -7 3 -13 12 -13 20 0 8 -9
27 -21 41 -19 25 -19 27 -3 39 25 18 110 16 139 -3 13 -9 33 -31 44 -49 22
-38 65 -70 80 -61 6 4 0 25 -14 53 -14 25 -25 55 -25 65 0 33 -19 58 -44 58
-19 0 -25 7 -30 34 -4 19 -13 39 -21 46 -8 7 -15 21 -15 31 0 11 -4 19 -9 19
-5 0 -13 10 -17 23 -8 27 -71 132 -101 170 -13 16 -23 37 -23 48 0 10 -4 19
-8 19 -4 0 -25 30 -47 68 -78 136 -109 187 -126 207 -24 29 -89 154 -89 172 0
9 -10 25 -23 37 -12 11 -33 55 -46 96 -33 103 -33 104 -81 205 -50 108 -87
165 -108 165 -23 0 -10 -51 37 -152 23 -48 41 -92 41 -98 0 -5 17 -52 38 -103
21 -50 42 -104 46 -119 3 -16 13 -28 21 -28 8 0 15 -8 15 -19 0 -26 39 -111
50 -111 6 0 10 -7 10 -16 0 -9 8 -28 18 -42 34 -53 43 -67 56 -97 8 -16 12
-33 10 -37 -10 -15 -79 -8 -110 11 -27 17 -114 131 -114 151 0 4 -6 13 -14 19
-8 7 -17 24 -21 39 -4 15 -10 29 -14 32 -4 3 -19 31 -34 63 -14 31 -31 57 -36
57 -6 0 -11 13 -11 29 0 17 -4 33 -10 36 -15 9 -12 41 5 59 24 23 18 34 -24
46 -31 8 -40 16 -44 38 -3 16 -24 50 -46 77 -47 57 -53 85 -17 85 14 0 37 -5
52 -10 34 -13 52 1 29 24 -9 9 -32 16 -50 16 -19 0 -36 4 -40 9 -3 5 -27 22
-53 37 -39 22 -62 27 -130 30 -45 2 -89 7 -98 12 -21 12 -66 122 -59 148 7 29
-14 53 -54 60 l-34 7 6 -48 c4 -27 14 -56 22 -65 17 -19 20 -56 6 -65 -6 -3
-29 -2 -52 1 -52 9 -89 45 -89 87 0 16 -11 42 -25 59 -14 16 -25 36 -25 45 0
8 -11 28 -25 45 -14 16 -25 36 -25 44 0 16 -26 19 -34 5z m667 -670 c14 -6 29
-20 32 -33 4 -13 21 -50 36 -84 34 -71 34 -77 13 -98 -11 -12 -20 -13 -34 -6
-10 6 -28 10 -40 10 -29 0 -80 53 -80 82 0 13 -4 28 -9 34 -5 5 -19 27 -31 48
-17 31 -19 41 -8 47 18 12 91 11 121 0z m61 -559 c35 -32 106 -136 106 -157 0
-12 -5 -26 -12 -33 -15 -15 -5 -26 43 -50 36 -18 138 -146 139 -173 0 -27 -78
-35 -110 -11 -30 23 -92 109 -127 177 -14 28 -36 62 -50 76 -14 15 -42 61 -62
104 -37 74 -37 77 -18 90 22 15 58 6 91 -23z m210 3 c57 -6 61 -9 74 -53 7
-23 24 -50 37 -61 22 -16 24 -23 15 -43 -12 -26 -82 -53 -105 -41 -33 19 -125
177 -117 202 3 9 13 11 31 6 14 -3 44 -8 65 -10z m290 -54 c20 -29 39 -64 42
-77 3 -13 12 -28 20 -35 16 -13 19 -55 4 -64 -5 -3 -17 -1 -27 4 -10 5 -36 13
-58 18 -35 7 -44 15 -77 73 -49 85 -50 110 0 131 20 9 42 13 49 10 6 -3 27
-30 47 -60z"/>
<path d="M3735 5535 c-9 -20 -14 -44 -11 -53 12 -39 17 -270 7 -276 -7 -5 -11
-47 -11 -111 0 -122 7 -135 78 -136 26 0 109 -3 184 -5 80 -2 139 0 143 6 15
24 28 162 32 336 4 190 4 190 -19 201 -13 7 -36 14 -53 17 -54 9 -90 17 -110
26 -11 5 -51 11 -90 14 -38 3 -85 9 -103 12 -30 6 -33 4 -47 -31z m162 -53
c46 -29 33 -151 -19 -178 -16 -8 -37 -13 -47 -9 -22 7 -53 92 -45 125 13 56
26 70 63 70 20 0 41 -4 48 -8z m173 -43 c36 -39 41 -97 11 -146 -27 -43 -56
-51 -87 -22 -21 19 -24 32 -24 90 0 57 4 72 22 89 30 27 43 25 78 -11z m-170
-214 c8 -10 11 -36 8 -76 -4 -52 -9 -66 -32 -86 -31 -26 -87 -31 -106 -8 -17
21 8 130 39 168 17 21 74 23 91 2z m150 -20 c74 -38 38 -195 -46 -195 -33 0
-66 45 -57 79 4 14 7 47 6 73 -1 43 1 47 26 51 14 2 30 5 34 6 4 0 21 -6 37
-14z"/>
<path d="M4256 5521 c-11 -18 0 -631 11 -642 17 -17 28 -5 52 58 31 85 37 92
55 68 8 -11 19 -38 25 -60 18 -73 111 -137 111 -77 0 25 31 52 59 52 13 0 40
-17 63 -40 55 -54 58 -53 72 13 6 24 11 27 45 27 27 0 49 -8 69 -25 37 -31 50
-31 58 -1 7 28 -7 57 -47 104 -45 51 -36 82 25 82 27 0 41 -15 90 -98 39 -65
71 -91 88 -74 14 14 -5 68 -33 98 -24 25 -22 52 3 68 15 9 23 4 50 -29 18 -21
38 -48 43 -59 15 -29 45 -34 38 -7 -3 12 -9 21 -14 21 -4 0 -13 18 -19 40 -6
22 -20 44 -30 50 -11 6 -20 19 -20 28 0 10 -5 23 -11 29 -6 6 -16 21 -23 34
-6 12 -17 24 -24 27 -11 3 -12 0 -2 -17 6 -12 8 -31 5 -41 -10 -33 -62 -23
-111 22 -21 19 -22 19 -55 -1 -44 -27 -55 -26 -95 4 -22 17 -35 37 -40 61 -8
41 -1 52 21 34 9 -7 37 -23 63 -35 l47 -22 33 25 c17 13 32 28 32 32 0 16 -55
30 -121 30 -73 0 -124 15 -148 43 -18 23 -41 21 -41 -2 0 -11 -4 -23 -10 -26
-17 -10 -12 -20 30 -63 22 -22 40 -48 40 -57 0 -9 -16 -23 -37 -31 -48 -21
-77 -7 -93 43 -7 21 -26 57 -41 81 -16 24 -29 47 -29 52 0 5 -4 11 -9 15 -15
9 -33 -32 -23 -52 19 -38 35 -89 36 -118 1 -28 -1 -30 -41 -33 -55 -4 -63 12
-69 136 -5 85 -9 120 -30 220 -4 22 -37 31 -48 13z"/>
<path d="M1666 4844 c-3 -9 -6 -29 -6 -44 0 -16 -6 -32 -12 -37 -22 -13 -108
-24 -223 -30 -146 -7 -160 -19 -106 -96 25 -36 31 -61 46 -171 19 -138 16
-223 -9 -261 -22 -33 -21 -38 19 -97 44 -63 51 -90 36 -138 -6 -20 -11 -60
-11 -88 0 -40 -6 -57 -26 -81 l-26 -31 31 -35 c17 -20 37 -50 45 -68 21 -50
60 -79 124 -92 31 -7 62 -9 67 -4 18 13 99 39 126 39 14 0 63 11 109 25 46 14
99 25 118 25 24 0 45 9 69 30 18 17 40 30 47 30 20 0 54 42 39 47 -21 7 -15
38 12 63 16 15 23 30 19 40 -21 49 -38 139 -45 240 -44 613 -46 630 -81 643
-7 2 -58 2 -113 -1 -128 -6 -165 4 -179 46 -10 28 -40 61 -57 62 -4 0 -10 -7
-13 -16z m308 -217 c19 -26 21 -43 23 -180 1 -84 -1 -164 -4 -179 l-5 -28
-103 0 -103 0 -6 123 c-3 67 -8 154 -12 192 l-6 70 34 17 c22 12 53 16 97 15
57 -2 66 -5 85 -30z m-329 -3 c16 -12 21 -32 27 -97 4 -45 10 -97 14 -115 3
-18 3 -61 -1 -96 -6 -61 -8 -65 -37 -75 -41 -14 -95 -14 -104 1 -4 6 -11 43
-16 82 -18 151 -27 212 -33 246 -10 52 0 58 115 68 8 1 24 -5 35 -14z m345
-456 c14 -34 30 -247 20 -273 -10 -25 -57 -35 -173 -35 l-70 0 7 53 c4 28 11
92 16 140 5 49 14 95 21 103 6 8 26 14 43 14 17 0 38 5 46 10 8 5 30 10 48 10
24 0 35 -6 42 -22z m-298 -63 c3 -22 10 -59 13 -81 5 -25 2 -56 -5 -79 -10
-29 -10 -42 0 -60 18 -33 7 -53 -32 -59 -18 -2 -61 -8 -96 -13 -77 -11 -89 -2
-72 54 7 21 16 46 21 55 5 10 9 50 9 89 0 38 5 79 11 90 14 27 66 49 109 46
32 -2 35 -5 42 -42z"/>
<path d="M5405 4270 c-11 -5 -31 -9 -45 -9 -45 -2 -266 -119 -310 -165 -8 -9
-32 -33 -53 -53 -42 -42 -94 -114 -108 -150 -7 -18 -5 -25 7 -30 17 -6 80 57
108 108 31 55 248 191 277 173 7 -4 8 -18 4 -38 -4 -17 -9 -79 -12 -138 -4
-103 -3 -108 16 -108 29 0 41 54 41 187 0 109 1 113 25 129 19 12 42 15 99 12
69 -3 80 -7 133 -44 103 -73 159 -180 137 -261 -6 -25 -6 -47 0 -66 12 -34 -5
-50 -40 -37 -13 5 -108 6 -211 3 -211 -7 -246 -7 -426 2 -151 8 -177 4 -177
-29 l0 -24 228 -7 c308 -8 669 -5 714 6 25 7 46 22 68 52 33 44 34 56 14 181
-21 128 -208 295 -331 296 -23 0 -45 5 -48 10 -7 12 -82 12 -110 0z"/>
<path d="M612 4138 c-14 -14 -16 -48 -2 -48 6 0 10 -8 10 -18 0 -17 7 -44 41
-150 15 -46 -3 -66 -50 -57 -20 3 -56 7 -80 8 -48 2 -49 1 -76 -76 -11 -31
-26 -52 -41 -59 -13 -6 -24 -19 -24 -29 0 -23 -21 -69 -31 -69 -4 0 -39 -29
-78 -65 -39 -36 -75 -65 -79 -65 -4 0 -27 -26 -49 -59 l-42 -58 40 -39 39 -38
-28 -31 c-16 -16 -58 -75 -95 -131 l-67 -101 0 -76 c0 -76 0 -77 26 -77 44 0
112 -21 130 -41 9 -10 23 -19 30 -19 7 0 28 -13 46 -28 38 -32 97 -52 155 -52
54 0 90 35 99 98 9 63 20 82 49 82 32 0 45 -26 32 -63 -6 -19 -7 -71 -2 -146
12 -170 10 -182 -26 -211 -80 -64 -117 -109 -124 -147 -9 -54 -35 -95 -83
-129 -23 -16 -46 -39 -51 -52 -15 -33 -14 -77 4 -92 26 -22 49 -7 63 40 22 77
35 94 81 109 51 16 81 58 81 114 0 27 7 45 25 63 25 25 26 25 55 7 52 -30 77
1 79 99 1 38 5 50 23 59 28 15 137 5 178 -16 35 -18 65 -72 74 -135 10 -63 36
-189 47 -226 5 -17 9 -43 9 -57 0 -15 4 -35 9 -45 5 -9 14 -43 20 -75 13 -72
31 -112 51 -112 12 0 15 14 14 70 -2 115 -24 321 -50 465 -22 122 -47 272 -90
540 -8 52 -19 111 -25 130 -5 19 -15 73 -20 120 -21 160 -28 205 -43 270 -9
36 -16 77 -16 92 0 15 -11 61 -25 102 -14 41 -25 84 -25 95 0 11 -8 40 -19 63
-10 24 -27 69 -36 100 -10 32 -32 84 -50 115 -32 59 -59 75 -83 51z m-28 -343
c9 -9 20 -24 25 -33 8 -14 13 -15 30 -4 28 17 58 15 65 -4 3 -9 6 -43 6 -77 0
-33 4 -74 9 -91 24 -80 61 -257 61 -295 0 -23 6 -52 14 -64 14 -21 39 -148 87
-439 26 -155 23 -168 -31 -150 -17 6 -65 14 -108 18 -117 10 -115 7 -110 129
4 122 17 145 80 145 25 0 45 7 59 21 19 19 21 30 17 93 -8 118 -51 173 -95
121 -28 -31 -28 -43 -6 -106 10 -26 14 -51 11 -55 -4 -3 -30 -1 -58 6 -94 23
-210 -10 -210 -59 0 -9 -5 -22 -12 -29 -7 -7 -17 -27 -22 -44 -6 -18 -19 -34
-28 -36 -14 -3 -17 6 -20 50 -3 45 -6 53 -24 56 -13 2 -33 -8 -49 -22 -33 -30
-36 -31 -77 -10 -17 9 -52 22 -79 30 -27 8 -49 20 -49 27 0 26 73 117 99 123
80 18 75 9 77 130 1 77 -3 117 -13 137 -24 48 -19 52 114 87 38 9 44 15 53 50
6 22 24 50 41 64 16 14 36 40 44 58 7 19 23 42 35 53 30 27 39 55 28 84 -16
44 6 66 36 36z"/>
<path d="M5476 4074 c-16 -16 -38 -42 -50 -59 -25 -34 -60 -131 -52 -144 8
-12 135 -12 160 1 41 21 106 80 122 109 13 26 13 30 0 35 -20 8 -51 -10 -117
-68 -84 -73 -95 -66 -53 33 14 34 24 75 22 91 l-3 31 -29 -29z"/>
<path d="M2733 3868 c-4 -7 -8 -92 -10 -188 -1 -96 -8 -263 -15 -370 -18 -264
-16 -608 4 -881 15 -220 25 -269 51 -269 32 0 34 23 29 333 -2 197 2 451 12
688 19 443 20 635 5 644 -6 4 -8 13 -5 20 11 29 -54 50 -71 23z"/>
<path d="M4536 3688 c-3 -73 -8 -376 -12 -673 -3 -297 -10 -580 -15 -630 -5
-49 -9 -127 -9 -171 0 -60 -4 -85 -15 -94 -11 -10 -51 -11 -168 -5 -292 15
-1095 10 -1297 -8 -102 -9 -266 -21 -365 -27 -99 -6 -211 -15 -250 -21 -38 -5
-122 -14 -185 -19 -112 -10 -182 -17 -380 -39 -52 -6 -149 -15 -215 -21 -66
-5 -156 -17 -200 -25 -44 -9 -120 -20 -168 -25 -48 -5 -104 -14 -125 -19 -20
-6 -71 -15 -112 -21 -41 -7 -104 -20 -139 -31 -35 -10 -75 -19 -90 -19 -15 0
-31 -4 -36 -8 -6 -5 -31 -17 -57 -26 -26 -10 -51 -22 -54 -28 -18 -28 65 -37
121 -14 19 8 74 22 122 31 49 9 113 21 143 27 123 23 160 29 270 43 63 7 147
18 185 24 119 17 452 50 620 61 88 6 222 17 297 25 75 8 215 15 310 15 95 0
283 7 418 14 249 13 362 12 1010 -13 157 -6 313 -14 347 -17 60 -5 63 -7 80
-42 12 -25 34 -45 65 -62 115 -62 116 -87 6 -140 -135 -63 -155 -69 -277 -85
-219 -30 -277 -35 -581 -50 -168 -9 -332 -20 -365 -25 -33 -5 -157 -14 -275
-20 -270 -12 -340 -18 -416 -35 -33 -8 -116 -19 -184 -25 -68 -6 -140 -15
-159 -20 -20 -5 -79 -20 -131 -34 -52 -14 -187 -44 -300 -67 -266 -53 -303
-63 -583 -154 -337 -108 -488 -187 -543 -281 -39 -66 -38 -123 1 -165 54 -57
96 -69 289 -80 167 -10 235 -5 237 16 1 14 -55 29 -222 60 -145 26 -213 49
-238 78 -18 22 -8 45 25 57 14 6 45 24 69 40 152 105 623 243 1120 330 66 11
131 25 145 31 14 5 77 16 140 25 63 8 142 19 175 24 33 4 67 10 75 13 8 4 98
16 200 27 101 12 212 27 245 35 36 8 186 18 380 24 304 11 378 16 610 42 55 6
138 15 185 19 157 14 335 49 350 70 3 3 31 20 63 36 56 28 69 42 118 131 14
24 16 39 9 64 -13 45 -30 60 -110 99 -38 19 -70 37 -70 41 0 16 66 19 140 9
41 -6 118 -15 171 -19 53 -5 102 -12 108 -16 7 -4 87 -11 179 -16 235 -12 385
-27 472 -45 41 -9 107 -19 145 -24 101 -12 186 -26 263 -44 116 -26 238 -46
280 -46 22 0 59 -7 83 -16 24 -8 78 -16 119 -17 75 -2 75 -2 78 26 3 25 1 27
-36 27 -22 0 -59 9 -83 19 -24 11 -62 23 -83 27 -22 4 -51 13 -65 20 -14 8
-36 14 -48 14 -13 0 -40 6 -60 14 -41 15 -131 35 -283 61 -164 28 -184 33
-235 49 -28 9 -113 21 -190 26 -77 5 -165 14 -195 20 -30 6 -104 14 -165 18
-60 4 -116 11 -123 16 -7 4 -48 10 -90 11 -42 2 -149 8 -237 14 -88 5 -166 10
-172 11 -20 0 -15 54 9 118 21 55 22 70 23 532 1 490 -6 819 -22 950 -9 69
-34 130 -53 130 -4 0 -11 -60 -14 -132z"/>
<path d="M6152 3662 c-7 -5 -17 -31 -22 -58 -5 -27 -12 -62 -15 -79 -19 -97
-36 -203 -45 -295 -6 -58 -15 -127 -20 -155 -11 -55 -55 -513 -65 -665 -3 -52
-11 -120 -17 -150 -14 -68 -14 -228 0 -242 17 -17 52 11 73 57 11 24 22 72 25
107 3 34 8 70 12 78 3 8 11 65 17 126 13 133 29 164 79 164 53 0 63 -21 41
-86 -21 -61 -14 -103 28 -165 27 -40 70 -49 118 -25 37 19 54 13 69 -24 16
-38 58 -80 80 -80 10 0 23 -7 31 -16 10 -13 9 -27 -10 -85 -22 -67 -22 -72 -5
-90 9 -10 25 -19 34 -19 24 0 59 69 65 131 8 76 -4 111 -46 130 -19 9 -49 35
-67 58 -49 61 -82 75 -151 62 -51 -9 -58 -8 -73 10 -20 23 -14 47 27 107 14
20 25 47 25 60 0 50 -109 121 -184 122 l-39 0 6 113 c4 61 11 128 17 147 5 18
15 103 20 186 6 84 16 168 21 186 6 18 15 92 19 163 5 72 12 144 15 161 6 25
2 37 -14 53 -23 23 -30 25 -49 13z"/>
<path d="M4861 3610 c-23 -10 -23 -11 -5 -31 41 -46 12 -42 514 -68 234 -12
287 -22 296 -57 9 -36 -15 -450 -32 -533 -8 -40 -14 -93 -14 -117 0 -23 -4
-65 -10 -91 -5 -26 -17 -158 -25 -292 -8 -134 -18 -247 -21 -252 -9 -15 6 -49
21 -49 20 0 54 47 59 84 16 101 46 343 51 411 4 44 17 179 31 300 28 253 33
427 14 503 -13 49 -13 53 8 75 24 25 28 52 11 63 -7 4 -92 9 -190 11 -99 2
-190 8 -205 13 -14 6 -67 10 -117 11 -51 0 -128 4 -172 9 -171 19 -191 20
-214 10z"/>
<path d="M3700 3553 c-21 -15 -50 -17 -195 -18 l-170 0 -3 -25 c-2 -15 7 -41
21 -60 47 -70 60 -145 42 -239 -41 -210 -42 -257 -14 -348 11 -37 11 -49 -4
-90 -9 -27 -17 -61 -17 -78 -1 -16 -7 -41 -15 -55 -8 -14 -14 -35 -15 -47 0
-29 84 -103 119 -103 14 0 42 -5 61 -11 19 -5 132 -14 250 -18 246 -9 242 -10
302 77 27 39 32 55 31 97 -1 28 -1 154 -1 280 4 512 3 553 -16 574 -14 15 -36
19 -126 23 -93 4 -116 8 -160 31 -61 32 -59 32 -90 10z m-33 -142 c21 -17 22
-26 22 -157 0 -127 -8 -206 -23 -221 -3 -4 -30 -8 -59 -11 -38 -3 -56 0 -65
10 -8 10 -12 75 -14 199 l-3 184 55 6 c30 3 57 6 60 7 3 1 15 -7 27 -17z m308
-3 c14 -6 28 -23 31 -37 3 -14 8 -32 10 -40 7 -21 -26 -314 -36 -325 -5 -5
-50 -5 -107 0 -97 9 -98 9 -96 34 2 14 5 97 6 185 2 88 5 164 5 168 5 25 140
37 187 15z m-5 -477 c11 -21 14 -219 4 -269 -4 -19 -14 -34 -26 -38 -23 -7
-200 5 -217 15 -8 5 -7 21 5 60 8 29 22 89 29 134 8 44 19 85 25 91 6 6 34 13
63 17 93 11 106 10 117 -10z m-309 -7 c4 -2 9 -39 13 -82 6 -64 4 -86 -10
-115 -15 -30 -15 -41 -5 -63 19 -43 0 -53 -109 -55 -88 -2 -95 -1 -98 18 -2
11 8 45 22 76 13 30 27 85 31 121 4 36 13 73 19 81 20 27 102 38 137 19z"/>
<path d="M4926 3313 c-3 -82 -11 -188 -16 -238 -34 -313 -54 -580 -54 -745 -1
-95 2 -115 14 -115 25 0 39 47 64 221 47 320 61 488 61 724 0 240 -9 300 -45
300 -16 0 -18 -14 -24 -147z"/>
<path d="M5296 3398 c-6 -56 -26 -441 -27 -538 -2 -105 -10 -136 -34 -132 -82
14 -85 14 -91 -2 -9 -24 21 -62 55 -69 24 -5 31 -13 36 -40 8 -42 2 -171 -13
-257 -11 -66 -4 -136 13 -134 39 4 84 269 116 669 5 66 13 147 18 180 13 85
13 232 0 274 -30 96 -64 119 -73 49z"/>
<path d="M2076 3313 c-41 -22 -146 -28 -211 -13 -50 12 -55 11 -85 -10 -28
-20 -50 -24 -164 -31 -72 -4 -139 -10 -148 -14 -25 -10 -31 -40 -15 -72 21
-42 27 -81 37 -263 5 -91 16 -190 24 -220 8 -30 17 -129 21 -220 5 -119 11
-172 22 -188 13 -22 13 -26 -8 -48 l-22 -23 40 -41 c23 -22 50 -40 61 -40 12
0 24 -4 27 -10 16 -26 174 -1 398 62 23 7 51 18 62 24 11 7 63 25 115 39 52
15 101 32 108 38 21 17 -12 30 -57 22 -52 -9 -62 6 -49 75 10 54 8 171 -10
615 -9 230 -17 270 -61 314 -25 25 -46 26 -85 4z m8 -135 c3 -29 6 -110 6
-179 l0 -126 -60 -7 c-33 -4 -74 -12 -91 -18 -18 -6 -34 -7 -40 -1 -5 5 -13
65 -19 133 -5 69 -12 139 -15 157 -5 26 -1 35 19 48 19 13 126 38 182 44 6 1
14 -22 18 -51z m-313 -19 c16 -8 18 -17 14 -43 -4 -18 1 -70 9 -115 9 -46 16
-94 16 -108 0 -34 -45 -73 -86 -73 -39 0 -50 16 -88 132 -13 41 -36 91 -50
112 -30 45 -33 74 -9 91 21 15 168 18 194 4z m340 -409 c4 -19 10 -95 14 -168
l6 -132 -35 -15 c-44 -19 -170 -20 -183 -2 -5 6 -7 81 -5 164 l4 153 61 20
c34 10 78 18 97 17 31 -2 35 -6 41 -37z m-310 -37 c11 -12 14 -53 14 -162 l0
-145 -62 -17 c-34 -9 -67 -13 -72 -9 -8 4 -8 29 -1 81 5 41 10 110 10 154 l0
81 43 16 c54 21 52 21 68 1z"/>
<path d="M2170 1894 c-107 -7 -238 -20 -290 -28 -52 -8 -133 -18 -180 -22
-127 -9 -551 -82 -810 -140 -291 -65 -485 -127 -485 -155 0 -23 70 -13 295 41
113 27 225 51 250 55 25 3 90 15 145 26 55 10 145 26 200 34 55 8 135 22 179
30 43 8 214 30 380 50 165 20 382 49 481 65 99 17 196 30 216 30 20 0 52 3 70
7 33 7 33 7 9 14 -38 11 -243 8 -460 -7z"/>
<path d="M3018 1857 c-18 -5 -91 -12 -163 -17 -197 -14 -331 -27 -342 -33 -5
-3 -81 -13 -169 -21 -87 -9 -181 -20 -209 -25 -27 -5 -88 -14 -135 -20 -78
-10 -246 -38 -380 -62 -30 -5 -109 -19 -175 -29 -66 -11 -165 -31 -220 -44
-55 -14 -120 -29 -145 -32 -24 -4 -58 -12 -75 -19 -16 -7 -52 -16 -80 -19 -27
-4 -70 -13 -95 -21 -25 -7 -92 -26 -150 -40 -146 -37 -153 -40 -158 -53 -7
-21 51 -26 118 -8 36 9 90 19 120 22 30 4 91 17 135 29 44 13 166 37 270 54
105 17 244 40 310 51 66 11 136 22 155 24 19 3 78 14 130 24 133 27 340 59
505 77 77 8 192 22 255 30 63 9 183 20 265 25 83 5 175 14 205 19 30 6 213 15
406 20 197 6 363 15 379 21 58 22 9 32 -176 35 -101 2 -191 6 -199 9 -26 9
-348 11 -382 3z"/>
<path d="M5573 1810 c-52 -21 -10 -58 107 -94 30 -9 63 -21 72 -27 10 -5 27
-9 38 -9 30 0 233 -104 275 -141 43 -38 65 -78 65 -118 0 -23 -11 -39 -52 -75
-29 -25 -58 -46 -65 -46 -7 0 -13 -4 -13 -10 0 -5 -9 -10 -19 -10 -11 0 -55
-14 -98 -31 -43 -16 -116 -37 -163 -45 -47 -8 -143 -26 -215 -40 -71 -14 -157
-29 -191 -34 -77 -11 -345 -77 -387 -95 -18 -7 -57 -21 -87 -30 -62 -19 -174
-81 -238 -132 -23 -19 -56 -58 -72 -86 -25 -43 -30 -63 -30 -117 0 -106 38
-152 185 -225 84 -42 222 -84 325 -100 25 -3 119 -19 210 -35 119 -20 231 -31
400 -40 149 -7 270 -18 331 -30 130 -27 444 -130 488 -162 24 -17 51 -14 51 6
0 16 -66 78 -107 101 -20 12 -33 28 -35 44 -3 23 -10 26 -138 53 -74 16 -178
38 -230 49 -52 11 -135 22 -185 25 -49 3 -139 14 -200 24 -60 11 -164 24 -230
30 -66 6 -151 17 -190 24 -38 8 -105 19 -147 25 -43 6 -103 20 -135 31 -31 11
-64 20 -72 20 -31 0 -178 81 -214 118 l-38 39 59 54 c130 121 486 245 872 305
91 14 223 34 293 45 70 10 144 26 164 34 19 8 46 15 59 15 13 0 24 4 24 10 0
5 15 16 33 25 45 21 109 89 142 153 l28 52 -23 78 c-22 70 -31 83 -95 148
-101 101 -259 176 -428 205 -37 6 -70 15 -73 20 -6 11 -22 11 -51 -1z"/>
<path d="M2110 1570 c-19 -5 -87 -13 -150 -19 -153 -15 -466 -79 -920 -191
-201 -49 -310 -85 -310 -101 0 -20 52 -20 117 0 37 11 91 23 118 27 28 3 77
12 110 20 53 12 525 103 722 139 40 7 89 19 109 25 20 7 89 21 153 32 64 10
142 23 174 28 66 11 100 26 92 41 -7 11 -165 10 -215 -1z"/>
</g>
</svg>
